<mxfile host="Electron" modified="2024-09-26T08:33:09.311Z" agent="Mozilla/5.0 (Windows NT 10.0; Win64; x64) AppleWebKit/537.36 (KHTML, like Gecko) draw.io/24.6.4 Chrome/124.0.6367.207 Electron/30.0.6 Safari/537.36" etag="VLmMd2q8WZl7RlEloadw" version="24.6.4" type="device" pages="4">
  <diagram name="Identity" id="rJEcAKziqJpJcQs7hgBG">
    <mxGraphModel dx="819" dy="478" grid="1" gridSize="10" guides="1" tooltips="1" connect="1" arrows="1" fold="1" page="1" pageScale="1" pageWidth="850" pageHeight="1100" math="0" shadow="0">
      <root>
        <mxCell id="0" />
        <mxCell id="1" parent="0" />
        <mxCell id="WYWU50099fa3u9BzlQlp-4" style="edgeStyle=orthogonalEdgeStyle;rounded=0;orthogonalLoop=1;jettySize=auto;html=1;exitX=0.5;exitY=1;exitDx=0;exitDy=0;entryX=0.5;entryY=0;entryDx=0;entryDy=0;" parent="1" source="WYWU50099fa3u9BzlQlp-1" target="WYWU50099fa3u9BzlQlp-3" edge="1">
          <mxGeometry relative="1" as="geometry" />
        </mxCell>
        <mxCell id="WYWU50099fa3u9BzlQlp-12" style="edgeStyle=orthogonalEdgeStyle;rounded=0;orthogonalLoop=1;jettySize=auto;html=1;exitX=0;exitY=0.5;exitDx=0;exitDy=0;entryX=1;entryY=0.5;entryDx=0;entryDy=0;" parent="1" source="WYWU50099fa3u9BzlQlp-1" target="WYWU50099fa3u9BzlQlp-11" edge="1">
          <mxGeometry relative="1" as="geometry" />
        </mxCell>
        <mxCell id="WYWU50099fa3u9BzlQlp-1" value="Home" style="shape=hexagon;perimeter=hexagonPerimeter2;whiteSpace=wrap;html=1;fixedSize=1;" parent="1" vertex="1">
          <mxGeometry x="220" y="170" width="120" height="40" as="geometry" />
        </mxCell>
        <mxCell id="WYWU50099fa3u9BzlQlp-6" style="edgeStyle=orthogonalEdgeStyle;rounded=0;orthogonalLoop=1;jettySize=auto;html=1;exitX=1;exitY=0;exitDx=0;exitDy=0;entryX=0;entryY=0.5;entryDx=0;entryDy=0;" parent="1" source="WYWU50099fa3u9BzlQlp-3" target="WYWU50099fa3u9BzlQlp-5" edge="1">
          <mxGeometry relative="1" as="geometry" />
        </mxCell>
        <mxCell id="WYWU50099fa3u9BzlQlp-8" style="edgeStyle=orthogonalEdgeStyle;rounded=0;orthogonalLoop=1;jettySize=auto;html=1;exitX=1;exitY=0.5;exitDx=0;exitDy=0;entryX=0;entryY=0.25;entryDx=0;entryDy=0;" parent="1" source="WYWU50099fa3u9BzlQlp-3" target="WYWU50099fa3u9BzlQlp-7" edge="1">
          <mxGeometry relative="1" as="geometry" />
        </mxCell>
        <mxCell id="WYWU50099fa3u9BzlQlp-3" value="Login Page" style="ellipse;whiteSpace=wrap;html=1;" parent="1" vertex="1">
          <mxGeometry x="210" y="320" width="140" height="40" as="geometry" />
        </mxCell>
        <mxCell id="WYWU50099fa3u9BzlQlp-5" value="Local Login" style="rounded=0;whiteSpace=wrap;html=1;" parent="1" vertex="1">
          <mxGeometry x="430" y="280" width="120" height="30" as="geometry" />
        </mxCell>
        <mxCell id="WYWU50099fa3u9BzlQlp-7" value="Google Login" style="rounded=0;whiteSpace=wrap;html=1;" parent="1" vertex="1">
          <mxGeometry x="430" y="340" width="120" height="30" as="geometry" />
        </mxCell>
        <mxCell id="WYWU50099fa3u9BzlQlp-14" style="edgeStyle=orthogonalEdgeStyle;rounded=0;orthogonalLoop=1;jettySize=auto;html=1;exitX=0.5;exitY=0;exitDx=0;exitDy=0;entryX=0.5;entryY=1;entryDx=0;entryDy=0;" parent="1" source="WYWU50099fa3u9BzlQlp-11" target="WYWU50099fa3u9BzlQlp-13" edge="1">
          <mxGeometry relative="1" as="geometry" />
        </mxCell>
        <mxCell id="WYWU50099fa3u9BzlQlp-11" value="Logout Page" style="ellipse;whiteSpace=wrap;html=1;" parent="1" vertex="1">
          <mxGeometry x="40" y="170" width="140" height="40" as="geometry" />
        </mxCell>
        <mxCell id="WYWU50099fa3u9BzlQlp-13" value="Logout" style="rounded=0;whiteSpace=wrap;html=1;" parent="1" vertex="1">
          <mxGeometry x="50" y="90" width="120" height="30" as="geometry" />
        </mxCell>
        <mxCell id="WYWU50099fa3u9BzlQlp-18" style="edgeStyle=orthogonalEdgeStyle;rounded=0;orthogonalLoop=1;jettySize=auto;html=1;exitX=1;exitY=0.5;exitDx=0;exitDy=0;entryX=0;entryY=0.5;entryDx=0;entryDy=0;" parent="1" source="WYWU50099fa3u9BzlQlp-15" target="WYWU50099fa3u9BzlQlp-17" edge="1">
          <mxGeometry relative="1" as="geometry" />
        </mxCell>
        <mxCell id="WYWU50099fa3u9BzlQlp-20" style="edgeStyle=orthogonalEdgeStyle;rounded=0;orthogonalLoop=1;jettySize=auto;html=1;exitX=0.5;exitY=1;exitDx=0;exitDy=0;entryX=0.5;entryY=0;entryDx=0;entryDy=0;" parent="1" source="WYWU50099fa3u9BzlQlp-15" target="WYWU50099fa3u9BzlQlp-19" edge="1">
          <mxGeometry relative="1" as="geometry" />
        </mxCell>
        <mxCell id="WYWU50099fa3u9BzlQlp-15" value="Profile" style="shape=hexagon;perimeter=hexagonPerimeter2;whiteSpace=wrap;html=1;fixedSize=1;" parent="1" vertex="1">
          <mxGeometry x="30" y="450" width="120" height="40" as="geometry" />
        </mxCell>
        <mxCell id="WYWU50099fa3u9BzlQlp-17" value="Profile Page" style="ellipse;whiteSpace=wrap;html=1;" parent="1" vertex="1">
          <mxGeometry x="230" y="450" width="120" height="40" as="geometry" />
        </mxCell>
        <mxCell id="WYWU50099fa3u9BzlQlp-23" style="edgeStyle=orthogonalEdgeStyle;rounded=0;orthogonalLoop=1;jettySize=auto;html=1;exitX=1;exitY=0.5;exitDx=0;exitDy=0;entryX=0;entryY=0.5;entryDx=0;entryDy=0;" parent="1" source="WYWU50099fa3u9BzlQlp-19" target="WYWU50099fa3u9BzlQlp-22" edge="1">
          <mxGeometry relative="1" as="geometry" />
        </mxCell>
        <mxCell id="WYWU50099fa3u9BzlQlp-19" value="Profile API" style="ellipse;whiteSpace=wrap;html=1;" parent="1" vertex="1">
          <mxGeometry x="30" y="530" width="120" height="40" as="geometry" />
        </mxCell>
        <mxCell id="WYWU50099fa3u9BzlQlp-22" value="Serve Profile" style="rounded=0;whiteSpace=wrap;html=1;" parent="1" vertex="1">
          <mxGeometry x="230" y="530" width="120" height="40" as="geometry" />
        </mxCell>
        <mxCell id="WYWU50099fa3u9BzlQlp-26" style="edgeStyle=orthogonalEdgeStyle;rounded=0;orthogonalLoop=1;jettySize=auto;html=1;exitX=0.5;exitY=1;exitDx=0;exitDy=0;entryX=0.5;entryY=0;entryDx=0;entryDy=0;" parent="1" source="WYWU50099fa3u9BzlQlp-24" target="WYWU50099fa3u9BzlQlp-25" edge="1">
          <mxGeometry relative="1" as="geometry" />
        </mxCell>
        <mxCell id="WYWU50099fa3u9BzlQlp-30" style="edgeStyle=orthogonalEdgeStyle;rounded=0;orthogonalLoop=1;jettySize=auto;html=1;exitX=1;exitY=0.5;exitDx=0;exitDy=0;entryX=0;entryY=0.5;entryDx=0;entryDy=0;" parent="1" source="WYWU50099fa3u9BzlQlp-24" target="WYWU50099fa3u9BzlQlp-29" edge="1">
          <mxGeometry relative="1" as="geometry" />
        </mxCell>
        <mxCell id="WYWU50099fa3u9BzlQlp-24" value="Password" style="shape=hexagon;perimeter=hexagonPerimeter2;whiteSpace=wrap;html=1;fixedSize=1;" parent="1" vertex="1">
          <mxGeometry x="440" y="420" width="120" height="40" as="geometry" />
        </mxCell>
        <mxCell id="WYWU50099fa3u9BzlQlp-28" style="edgeStyle=orthogonalEdgeStyle;rounded=0;orthogonalLoop=1;jettySize=auto;html=1;exitX=0.5;exitY=1;exitDx=0;exitDy=0;" parent="1" source="WYWU50099fa3u9BzlQlp-25" target="WYWU50099fa3u9BzlQlp-27" edge="1">
          <mxGeometry relative="1" as="geometry" />
        </mxCell>
        <mxCell id="WYWU50099fa3u9BzlQlp-25" value="Change Password Page" style="ellipse;whiteSpace=wrap;html=1;" parent="1" vertex="1">
          <mxGeometry x="440" y="500" width="120" height="40" as="geometry" />
        </mxCell>
        <mxCell id="WYWU50099fa3u9BzlQlp-27" value="Change Password" style="rounded=0;whiteSpace=wrap;html=1;" parent="1" vertex="1">
          <mxGeometry x="440" y="580" width="120" height="30" as="geometry" />
        </mxCell>
        <mxCell id="WYWU50099fa3u9BzlQlp-32" style="edgeStyle=orthogonalEdgeStyle;rounded=0;orthogonalLoop=1;jettySize=auto;html=1;exitX=0.5;exitY=1;exitDx=0;exitDy=0;entryX=0.5;entryY=0;entryDx=0;entryDy=0;" parent="1" source="WYWU50099fa3u9BzlQlp-29" target="WYWU50099fa3u9BzlQlp-31" edge="1">
          <mxGeometry relative="1" as="geometry" />
        </mxCell>
        <mxCell id="WYWU50099fa3u9BzlQlp-29" value="Forgot Password" style="ellipse;whiteSpace=wrap;html=1;" parent="1" vertex="1">
          <mxGeometry x="620" y="420" width="120" height="40" as="geometry" />
        </mxCell>
        <mxCell id="WYWU50099fa3u9BzlQlp-31" value="Reset Password" style="rounded=0;whiteSpace=wrap;html=1;" parent="1" vertex="1">
          <mxGeometry x="620" y="500" width="120" height="30" as="geometry" />
        </mxCell>
        <mxCell id="ee25Tmr11nysO8Gfsvak-1" value="Service/Controller" style="shape=hexagon;perimeter=hexagonPerimeter2;whiteSpace=wrap;html=1;fixedSize=1;" parent="1" vertex="1">
          <mxGeometry x="60" y="800" width="160" height="40" as="geometry" />
        </mxCell>
        <mxCell id="ee25Tmr11nysO8Gfsvak-2" value="Page Or API Endpoints" style="ellipse;whiteSpace=wrap;html=1;" parent="1" vertex="1">
          <mxGeometry x="60" y="870" width="170" height="50" as="geometry" />
        </mxCell>
        <mxCell id="ee25Tmr11nysO8Gfsvak-3" value="Function" style="rounded=0;whiteSpace=wrap;html=1;" parent="1" vertex="1">
          <mxGeometry x="70" y="960" width="140" height="40" as="geometry" />
        </mxCell>
        <mxCell id="pRPX-tYSXeRV4Ra9ZcV6-4" style="edgeStyle=orthogonalEdgeStyle;rounded=0;orthogonalLoop=1;jettySize=auto;html=1;exitX=0.5;exitY=1;exitDx=0;exitDy=0;" parent="1" source="pRPX-tYSXeRV4Ra9ZcV6-2" target="pRPX-tYSXeRV4Ra9ZcV6-3" edge="1">
          <mxGeometry relative="1" as="geometry" />
        </mxCell>
        <mxCell id="pRPX-tYSXeRV4Ra9ZcV6-8" style="edgeStyle=orthogonalEdgeStyle;rounded=0;orthogonalLoop=1;jettySize=auto;html=1;exitX=1;exitY=0.75;exitDx=0;exitDy=0;" parent="1" source="pRPX-tYSXeRV4Ra9ZcV6-2" target="pRPX-tYSXeRV4Ra9ZcV6-7" edge="1">
          <mxGeometry relative="1" as="geometry" />
        </mxCell>
        <mxCell id="pRPX-tYSXeRV4Ra9ZcV6-2" value="Role &amp;amp; Permission" style="shape=hexagon;perimeter=hexagonPerimeter2;whiteSpace=wrap;html=1;fixedSize=1;" parent="1" vertex="1">
          <mxGeometry x="425" y="720" width="165" height="40" as="geometry" />
        </mxCell>
        <mxCell id="pRPX-tYSXeRV4Ra9ZcV6-6" style="edgeStyle=orthogonalEdgeStyle;rounded=0;orthogonalLoop=1;jettySize=auto;html=1;exitX=0.5;exitY=1;exitDx=0;exitDy=0;entryX=0.5;entryY=0;entryDx=0;entryDy=0;" parent="1" source="pRPX-tYSXeRV4Ra9ZcV6-3" target="pRPX-tYSXeRV4Ra9ZcV6-5" edge="1">
          <mxGeometry relative="1" as="geometry" />
        </mxCell>
        <mxCell id="pRPX-tYSXeRV4Ra9ZcV6-3" value="Permission API" style="ellipse;whiteSpace=wrap;html=1;" parent="1" vertex="1">
          <mxGeometry x="448" y="840" width="120" height="40" as="geometry" />
        </mxCell>
        <mxCell id="pRPX-tYSXeRV4Ra9ZcV6-5" value="Permission Check" style="rounded=0;whiteSpace=wrap;html=1;" parent="1" vertex="1">
          <mxGeometry x="448" y="920" width="120" height="30" as="geometry" />
        </mxCell>
        <mxCell id="pRPX-tYSXeRV4Ra9ZcV6-10" style="edgeStyle=orthogonalEdgeStyle;rounded=0;orthogonalLoop=1;jettySize=auto;html=1;exitX=0.5;exitY=1;exitDx=0;exitDy=0;" parent="1" source="pRPX-tYSXeRV4Ra9ZcV6-7" target="pRPX-tYSXeRV4Ra9ZcV6-9" edge="1">
          <mxGeometry relative="1" as="geometry" />
        </mxCell>
        <mxCell id="pRPX-tYSXeRV4Ra9ZcV6-7" value="Role &amp;amp; Permission API" style="ellipse;whiteSpace=wrap;html=1;" parent="1" vertex="1">
          <mxGeometry x="620" y="800" width="120" height="40" as="geometry" />
        </mxCell>
        <mxCell id="pRPX-tYSXeRV4Ra9ZcV6-9" value="List Permission" style="rounded=0;whiteSpace=wrap;html=1;" parent="1" vertex="1">
          <mxGeometry x="620" y="920" width="120" height="30" as="geometry" />
        </mxCell>
        <mxCell id="2K7SnHbRYqCtmOfBSxiz-4" style="edgeStyle=orthogonalEdgeStyle;rounded=0;orthogonalLoop=1;jettySize=auto;html=1;exitX=1;exitY=0.5;exitDx=0;exitDy=0;entryX=0;entryY=0.5;entryDx=0;entryDy=0;" parent="1" source="2K7SnHbRYqCtmOfBSxiz-1" target="2K7SnHbRYqCtmOfBSxiz-2" edge="1">
          <mxGeometry relative="1" as="geometry" />
        </mxCell>
        <mxCell id="2K7SnHbRYqCtmOfBSxiz-1" value="User" style="shape=hexagon;perimeter=hexagonPerimeter2;whiteSpace=wrap;html=1;fixedSize=1;" parent="1" vertex="1">
          <mxGeometry x="20" y="650" width="120" height="30" as="geometry" />
        </mxCell>
        <mxCell id="2K7SnHbRYqCtmOfBSxiz-5" style="edgeStyle=orthogonalEdgeStyle;rounded=0;orthogonalLoop=1;jettySize=auto;html=1;exitX=0.5;exitY=1;exitDx=0;exitDy=0;entryX=0.5;entryY=0;entryDx=0;entryDy=0;" parent="1" source="2K7SnHbRYqCtmOfBSxiz-2" target="2K7SnHbRYqCtmOfBSxiz-3" edge="1">
          <mxGeometry relative="1" as="geometry" />
        </mxCell>
        <mxCell id="2K7SnHbRYqCtmOfBSxiz-2" value="User API" style="ellipse;whiteSpace=wrap;html=1;" parent="1" vertex="1">
          <mxGeometry x="180" y="645" width="120" height="40" as="geometry" />
        </mxCell>
        <mxCell id="2K7SnHbRYqCtmOfBSxiz-3" value="Serve User List" style="shape=hexagon;perimeter=hexagonPerimeter2;whiteSpace=wrap;html=1;fixedSize=1;" parent="1" vertex="1">
          <mxGeometry x="180" y="720" width="120" height="30" as="geometry" />
        </mxCell>
        <mxCell id="MVrPpYFsX54e3Xla8GI--3" style="edgeStyle=orthogonalEdgeStyle;rounded=0;orthogonalLoop=1;jettySize=auto;html=1;exitX=0.5;exitY=0;exitDx=0;exitDy=0;entryX=0.5;entryY=1;entryDx=0;entryDy=0;" edge="1" parent="1" source="MVrPpYFsX54e3Xla8GI--1" target="MVrPpYFsX54e3Xla8GI--2">
          <mxGeometry relative="1" as="geometry" />
        </mxCell>
        <mxCell id="MVrPpYFsX54e3Xla8GI--1" value="Audit Log" style="shape=hexagon;perimeter=hexagonPerimeter2;whiteSpace=wrap;html=1;fixedSize=1;" vertex="1" parent="1">
          <mxGeometry x="470" y="160" width="120" height="40" as="geometry" />
        </mxCell>
        <mxCell id="MVrPpYFsX54e3Xla8GI--2" value="Log View (All/By Division)" style="rounded=0;whiteSpace=wrap;html=1;" vertex="1" parent="1">
          <mxGeometry x="455" y="40" width="150" height="40" as="geometry" />
        </mxCell>
      </root>
    </mxGraphModel>
  </diagram>
  <diagram id="OXgscS3JRQcg7xL0m1pI" name="HR">
    <mxGraphModel dx="503" dy="293" grid="1" gridSize="10" guides="1" tooltips="1" connect="1" arrows="1" fold="1" page="1" pageScale="1" pageWidth="850" pageHeight="1100" math="0" shadow="0">
      <root>
        <mxCell id="0" />
        <mxCell id="1" parent="0" />
        <mxCell id="un0GdWgI_3Ctvx7erMAo-3" style="edgeStyle=orthogonalEdgeStyle;rounded=0;orthogonalLoop=1;jettySize=auto;html=1;exitX=0.5;exitY=0;exitDx=0;exitDy=0;entryX=0.5;entryY=1;entryDx=0;entryDy=0;" parent="1" source="un0GdWgI_3Ctvx7erMAo-1" target="un0GdWgI_3Ctvx7erMAo-2" edge="1">
          <mxGeometry relative="1" as="geometry" />
        </mxCell>
        <mxCell id="un0GdWgI_3Ctvx7erMAo-11" style="edgeStyle=orthogonalEdgeStyle;rounded=0;orthogonalLoop=1;jettySize=auto;html=1;exitX=1;exitY=0.25;exitDx=0;exitDy=0;entryX=0;entryY=0.5;entryDx=0;entryDy=0;" parent="1" source="un0GdWgI_3Ctvx7erMAo-1" target="un0GdWgI_3Ctvx7erMAo-10" edge="1">
          <mxGeometry relative="1" as="geometry" />
        </mxCell>
        <mxCell id="TUJQbUO1rVQIgaSPOk0f-6" style="edgeStyle=orthogonalEdgeStyle;rounded=0;orthogonalLoop=1;jettySize=auto;html=1;entryX=0.5;entryY=0;entryDx=0;entryDy=0;" parent="1" source="un0GdWgI_3Ctvx7erMAo-1" target="TUJQbUO1rVQIgaSPOk0f-5" edge="1">
          <mxGeometry relative="1" as="geometry" />
        </mxCell>
        <mxCell id="un0GdWgI_3Ctvx7erMAo-1" value="Employee" style="shape=hexagon;perimeter=hexagonPerimeter2;whiteSpace=wrap;html=1;fixedSize=1;" parent="1" vertex="1">
          <mxGeometry x="360" y="170" width="120" height="40" as="geometry" />
        </mxCell>
        <mxCell id="un0GdWgI_3Ctvx7erMAo-5" style="edgeStyle=orthogonalEdgeStyle;rounded=0;orthogonalLoop=1;jettySize=auto;html=1;exitX=1;exitY=0.5;exitDx=0;exitDy=0;entryX=0;entryY=0.5;entryDx=0;entryDy=0;" parent="1" source="un0GdWgI_3Ctvx7erMAo-2" target="un0GdWgI_3Ctvx7erMAo-4" edge="1">
          <mxGeometry relative="1" as="geometry" />
        </mxCell>
        <mxCell id="un0GdWgI_3Ctvx7erMAo-2" value="Create Employee Page" style="ellipse;whiteSpace=wrap;html=1;" parent="1" vertex="1">
          <mxGeometry x="360" y="50" width="120" height="40" as="geometry" />
        </mxCell>
        <mxCell id="un0GdWgI_3Ctvx7erMAo-4" value="Create Employee" style="rounded=0;whiteSpace=wrap;html=1;" parent="1" vertex="1">
          <mxGeometry x="520" y="50" width="120" height="40" as="geometry" />
        </mxCell>
        <mxCell id="un0GdWgI_3Ctvx7erMAo-9" style="edgeStyle=orthogonalEdgeStyle;rounded=0;orthogonalLoop=1;jettySize=auto;html=1;exitX=0.5;exitY=0;exitDx=0;exitDy=0;entryX=0.5;entryY=1;entryDx=0;entryDy=0;" parent="1" source="un0GdWgI_3Ctvx7erMAo-6" target="un0GdWgI_3Ctvx7erMAo-8" edge="1">
          <mxGeometry relative="1" as="geometry" />
        </mxCell>
        <mxCell id="un0GdWgI_3Ctvx7erMAo-21" style="edgeStyle=orthogonalEdgeStyle;rounded=0;orthogonalLoop=1;jettySize=auto;html=1;exitX=0.5;exitY=1;exitDx=0;exitDy=0;entryX=0.5;entryY=0;entryDx=0;entryDy=0;" parent="1" source="un0GdWgI_3Ctvx7erMAo-6" target="un0GdWgI_3Ctvx7erMAo-20" edge="1">
          <mxGeometry relative="1" as="geometry" />
        </mxCell>
        <mxCell id="un0GdWgI_3Ctvx7erMAo-6" value="Edit Employee Profile" style="ellipse;whiteSpace=wrap;html=1;" parent="1" vertex="1">
          <mxGeometry x="220" y="90" width="120" height="40" as="geometry" />
        </mxCell>
        <mxCell id="un0GdWgI_3Ctvx7erMAo-7" style="edgeStyle=orthogonalEdgeStyle;rounded=0;orthogonalLoop=1;jettySize=auto;html=1;exitX=0.375;exitY=0;exitDx=0;exitDy=0;entryX=1;entryY=0.45;entryDx=0;entryDy=0;entryPerimeter=0;" parent="1" source="un0GdWgI_3Ctvx7erMAo-1" target="un0GdWgI_3Ctvx7erMAo-6" edge="1">
          <mxGeometry relative="1" as="geometry" />
        </mxCell>
        <mxCell id="un0GdWgI_3Ctvx7erMAo-8" value="Edit Employee Profile" style="rounded=0;whiteSpace=wrap;html=1;" parent="1" vertex="1">
          <mxGeometry x="220" y="20" width="120" height="30" as="geometry" />
        </mxCell>
        <mxCell id="un0GdWgI_3Ctvx7erMAo-13" style="edgeStyle=orthogonalEdgeStyle;rounded=0;orthogonalLoop=1;jettySize=auto;html=1;exitX=1;exitY=0;exitDx=0;exitDy=0;entryX=0.5;entryY=1;entryDx=0;entryDy=0;" parent="1" source="un0GdWgI_3Ctvx7erMAo-10" target="un0GdWgI_3Ctvx7erMAo-12" edge="1">
          <mxGeometry relative="1" as="geometry" />
        </mxCell>
        <mxCell id="un0GdWgI_3Ctvx7erMAo-15" style="edgeStyle=orthogonalEdgeStyle;rounded=0;orthogonalLoop=1;jettySize=auto;html=1;exitX=1;exitY=1;exitDx=0;exitDy=0;entryX=0;entryY=0.5;entryDx=0;entryDy=0;" parent="1" source="un0GdWgI_3Ctvx7erMAo-10" target="un0GdWgI_3Ctvx7erMAo-14" edge="1">
          <mxGeometry relative="1" as="geometry" />
        </mxCell>
        <mxCell id="un0GdWgI_3Ctvx7erMAo-17" style="edgeStyle=orthogonalEdgeStyle;rounded=0;orthogonalLoop=1;jettySize=auto;html=1;exitX=0.5;exitY=1;exitDx=0;exitDy=0;" parent="1" source="un0GdWgI_3Ctvx7erMAo-10" target="un0GdWgI_3Ctvx7erMAo-16" edge="1">
          <mxGeometry relative="1" as="geometry" />
        </mxCell>
        <mxCell id="un0GdWgI_3Ctvx7erMAo-19" style="edgeStyle=orthogonalEdgeStyle;rounded=0;orthogonalLoop=1;jettySize=auto;html=1;exitX=0;exitY=1;exitDx=0;exitDy=0;entryX=0.5;entryY=0;entryDx=0;entryDy=0;" parent="1" source="un0GdWgI_3Ctvx7erMAo-10" target="un0GdWgI_3Ctvx7erMAo-18" edge="1">
          <mxGeometry relative="1" as="geometry" />
        </mxCell>
        <mxCell id="un0GdWgI_3Ctvx7erMAo-10" value="Position Page" style="ellipse;whiteSpace=wrap;html=1;" parent="1" vertex="1">
          <mxGeometry x="520" y="130" width="120" height="40" as="geometry" />
        </mxCell>
        <mxCell id="un0GdWgI_3Ctvx7erMAo-12" value="Set Position" style="rounded=0;whiteSpace=wrap;html=1;" parent="1" vertex="1">
          <mxGeometry x="670" y="80" width="120" height="30" as="geometry" />
        </mxCell>
        <mxCell id="un0GdWgI_3Ctvx7erMAo-14" value="Set Salary" style="rounded=0;whiteSpace=wrap;html=1;" parent="1" vertex="1">
          <mxGeometry x="670" y="170" width="120" height="40" as="geometry" />
        </mxCell>
        <mxCell id="un0GdWgI_3Ctvx7erMAo-16" value="View Position" style="rounded=0;whiteSpace=wrap;html=1;" parent="1" vertex="1">
          <mxGeometry x="590" y="250" width="120" height="40" as="geometry" />
        </mxCell>
        <mxCell id="un0GdWgI_3Ctvx7erMAo-18" value="View Position Histories" style="rounded=0;whiteSpace=wrap;html=1;" parent="1" vertex="1">
          <mxGeometry x="455" y="255" width="120" height="30" as="geometry" />
        </mxCell>
        <mxCell id="un0GdWgI_3Ctvx7erMAo-20" value="Set Resign State" style="rounded=0;whiteSpace=wrap;html=1;" parent="1" vertex="1">
          <mxGeometry x="220" y="150" width="120" height="30" as="geometry" />
        </mxCell>
        <mxCell id="un0GdWgI_3Ctvx7erMAo-26" style="edgeStyle=orthogonalEdgeStyle;rounded=0;orthogonalLoop=1;jettySize=auto;html=1;exitX=1;exitY=0.5;exitDx=0;exitDy=0;entryX=0;entryY=0.5;entryDx=0;entryDy=0;" parent="1" source="un0GdWgI_3Ctvx7erMAo-22" target="un0GdWgI_3Ctvx7erMAo-23" edge="1">
          <mxGeometry relative="1" as="geometry" />
        </mxCell>
        <mxCell id="TUJQbUO1rVQIgaSPOk0f-2" style="edgeStyle=orthogonalEdgeStyle;rounded=0;orthogonalLoop=1;jettySize=auto;html=1;exitX=0.5;exitY=0;exitDx=0;exitDy=0;entryX=0.5;entryY=1;entryDx=0;entryDy=0;" parent="1" source="un0GdWgI_3Ctvx7erMAo-22" target="TUJQbUO1rVQIgaSPOk0f-1" edge="1">
          <mxGeometry relative="1" as="geometry" />
        </mxCell>
        <mxCell id="un0GdWgI_3Ctvx7erMAo-22" value="Role &amp;amp; Permission" style="shape=hexagon;perimeter=hexagonPerimeter2;whiteSpace=wrap;html=1;fixedSize=1;" parent="1" vertex="1">
          <mxGeometry x="120" y="570" width="120" height="40" as="geometry" />
        </mxCell>
        <mxCell id="un0GdWgI_3Ctvx7erMAo-27" style="edgeStyle=orthogonalEdgeStyle;rounded=0;orthogonalLoop=1;jettySize=auto;html=1;exitX=1;exitY=0;exitDx=0;exitDy=0;" parent="1" source="un0GdWgI_3Ctvx7erMAo-23" target="un0GdWgI_3Ctvx7erMAo-24" edge="1">
          <mxGeometry relative="1" as="geometry" />
        </mxCell>
        <mxCell id="un0GdWgI_3Ctvx7erMAo-28" style="edgeStyle=orthogonalEdgeStyle;rounded=0;orthogonalLoop=1;jettySize=auto;html=1;exitX=1;exitY=0.5;exitDx=0;exitDy=0;entryX=0;entryY=0.5;entryDx=0;entryDy=0;" parent="1" source="un0GdWgI_3Ctvx7erMAo-23" target="un0GdWgI_3Ctvx7erMAo-25" edge="1">
          <mxGeometry relative="1" as="geometry" />
        </mxCell>
        <mxCell id="un0GdWgI_3Ctvx7erMAo-23" value="View Data" style="ellipse;whiteSpace=wrap;html=1;" parent="1" vertex="1">
          <mxGeometry x="310" y="570" width="120" height="40" as="geometry" />
        </mxCell>
        <mxCell id="un0GdWgI_3Ctvx7erMAo-24" value="Views Role" style="rounded=0;whiteSpace=wrap;html=1;" parent="1" vertex="1">
          <mxGeometry x="400" y="500" width="120" height="30" as="geometry" />
        </mxCell>
        <mxCell id="un0GdWgI_3Ctvx7erMAo-25" value="View Permission In Roles" style="rounded=0;whiteSpace=wrap;html=1;" parent="1" vertex="1">
          <mxGeometry x="480" y="575" width="120" height="30" as="geometry" />
        </mxCell>
        <mxCell id="TUJQbUO1rVQIgaSPOk0f-4" style="edgeStyle=orthogonalEdgeStyle;rounded=0;orthogonalLoop=1;jettySize=auto;html=1;exitX=0.5;exitY=0;exitDx=0;exitDy=0;entryX=0.5;entryY=1;entryDx=0;entryDy=0;" parent="1" source="TUJQbUO1rVQIgaSPOk0f-1" target="TUJQbUO1rVQIgaSPOk0f-3" edge="1">
          <mxGeometry relative="1" as="geometry" />
        </mxCell>
        <mxCell id="TUJQbUO1rVQIgaSPOk0f-1" value="Create Roles" style="ellipse;whiteSpace=wrap;html=1;" parent="1" vertex="1">
          <mxGeometry x="120" y="470" width="120" height="40" as="geometry" />
        </mxCell>
        <mxCell id="TUJQbUO1rVQIgaSPOk0f-3" value="Create Role" style="rounded=0;whiteSpace=wrap;html=1;" parent="1" vertex="1">
          <mxGeometry x="120" y="390" width="120" height="30" as="geometry" />
        </mxCell>
        <mxCell id="TUJQbUO1rVQIgaSPOk0f-5" value="User Role" style="ellipse;whiteSpace=wrap;html=1;" parent="1" vertex="1">
          <mxGeometry x="320" y="255" width="120" height="40" as="geometry" />
        </mxCell>
        <mxCell id="TUJQbUO1rVQIgaSPOk0f-7" value="Set User Roles" style="rounded=0;whiteSpace=wrap;html=1;" parent="1" vertex="1">
          <mxGeometry x="320" y="320" width="120" height="40" as="geometry" />
        </mxCell>
        <mxCell id="TUJQbUO1rVQIgaSPOk0f-8" style="edgeStyle=orthogonalEdgeStyle;rounded=0;orthogonalLoop=1;jettySize=auto;html=1;exitX=0.5;exitY=1;exitDx=0;exitDy=0;entryX=0.511;entryY=-0.083;entryDx=0;entryDy=0;entryPerimeter=0;" parent="1" source="TUJQbUO1rVQIgaSPOk0f-5" target="TUJQbUO1rVQIgaSPOk0f-7" edge="1">
          <mxGeometry relative="1" as="geometry" />
        </mxCell>
        <mxCell id="TUJQbUO1rVQIgaSPOk0f-13" style="edgeStyle=orthogonalEdgeStyle;rounded=0;orthogonalLoop=1;jettySize=auto;html=1;exitX=0.5;exitY=0;exitDx=0;exitDy=0;entryX=0.75;entryY=1;entryDx=0;entryDy=0;" parent="1" source="TUJQbUO1rVQIgaSPOk0f-9" target="TUJQbUO1rVQIgaSPOk0f-12" edge="1">
          <mxGeometry relative="1" as="geometry" />
        </mxCell>
        <mxCell id="TUJQbUO1rVQIgaSPOk0f-15" style="edgeStyle=orthogonalEdgeStyle;rounded=0;orthogonalLoop=1;jettySize=auto;html=1;exitX=0;exitY=0;exitDx=0;exitDy=0;entryX=1;entryY=0.5;entryDx=0;entryDy=0;" parent="1" source="TUJQbUO1rVQIgaSPOk0f-9" target="TUJQbUO1rVQIgaSPOk0f-14" edge="1">
          <mxGeometry relative="1" as="geometry">
            <Array as="points">
              <mxPoint x="138" y="235" />
              <mxPoint x="140" y="235" />
              <mxPoint x="140" y="215" />
            </Array>
          </mxGeometry>
        </mxCell>
        <mxCell id="TUJQbUO1rVQIgaSPOk0f-9" value="Employee List" style="ellipse;whiteSpace=wrap;html=1;" parent="1" vertex="1">
          <mxGeometry x="120" y="255" width="120" height="40" as="geometry" />
        </mxCell>
        <mxCell id="TUJQbUO1rVQIgaSPOk0f-11" style="edgeStyle=orthogonalEdgeStyle;rounded=0;orthogonalLoop=1;jettySize=auto;html=1;exitX=0;exitY=0.75;exitDx=0;exitDy=0;entryX=1;entryY=0.625;entryDx=0;entryDy=0;entryPerimeter=0;" parent="1" source="un0GdWgI_3Ctvx7erMAo-1" target="TUJQbUO1rVQIgaSPOk0f-9" edge="1">
          <mxGeometry relative="1" as="geometry" />
        </mxCell>
        <mxCell id="TUJQbUO1rVQIgaSPOk0f-12" value="View Employee" style="rounded=0;whiteSpace=wrap;html=1;" parent="1" vertex="1">
          <mxGeometry x="90" y="150" width="120" height="30" as="geometry" />
        </mxCell>
        <mxCell id="TUJQbUO1rVQIgaSPOk0f-14" value="Export Employee List" style="rounded=0;whiteSpace=wrap;html=1;" parent="1" vertex="1">
          <mxGeometry y="200" width="120" height="30" as="geometry" />
        </mxCell>
        <mxCell id="sOvNb4iYE4QgT3p0wdKc-3" style="edgeStyle=orthogonalEdgeStyle;rounded=0;orthogonalLoop=1;jettySize=auto;html=1;exitX=1;exitY=0.5;exitDx=0;exitDy=0;entryX=0;entryY=0.5;entryDx=0;entryDy=0;" edge="1" parent="1" source="sOvNb4iYE4QgT3p0wdKc-1" target="sOvNb4iYE4QgT3p0wdKc-2">
          <mxGeometry relative="1" as="geometry" />
        </mxCell>
        <mxCell id="sOvNb4iYE4QgT3p0wdKc-11" style="edgeStyle=orthogonalEdgeStyle;rounded=0;orthogonalLoop=1;jettySize=auto;html=1;exitX=0.5;exitY=1;exitDx=0;exitDy=0;" edge="1" parent="1" source="sOvNb4iYE4QgT3p0wdKc-1" target="sOvNb4iYE4QgT3p0wdKc-8">
          <mxGeometry relative="1" as="geometry" />
        </mxCell>
        <mxCell id="sOvNb4iYE4QgT3p0wdKc-1" value="Finacial&lt;div&gt;Data&lt;/div&gt;" style="shape=hexagon;perimeter=hexagonPerimeter2;whiteSpace=wrap;html=1;fixedSize=1;" vertex="1" parent="1">
          <mxGeometry x="120" y="680" width="120" height="40" as="geometry" />
        </mxCell>
        <mxCell id="sOvNb4iYE4QgT3p0wdKc-5" style="edgeStyle=orthogonalEdgeStyle;rounded=0;orthogonalLoop=1;jettySize=auto;html=1;exitX=0.5;exitY=1;exitDx=0;exitDy=0;" edge="1" parent="1" source="sOvNb4iYE4QgT3p0wdKc-2" target="sOvNb4iYE4QgT3p0wdKc-4">
          <mxGeometry relative="1" as="geometry" />
        </mxCell>
        <mxCell id="sOvNb4iYE4QgT3p0wdKc-7" style="edgeStyle=orthogonalEdgeStyle;rounded=0;orthogonalLoop=1;jettySize=auto;html=1;exitX=1;exitY=0.5;exitDx=0;exitDy=0;" edge="1" parent="1" source="sOvNb4iYE4QgT3p0wdKc-2" target="sOvNb4iYE4QgT3p0wdKc-6">
          <mxGeometry relative="1" as="geometry" />
        </mxCell>
        <mxCell id="sOvNb4iYE4QgT3p0wdKc-10" style="edgeStyle=orthogonalEdgeStyle;rounded=0;orthogonalLoop=1;jettySize=auto;html=1;exitX=1;exitY=1;exitDx=0;exitDy=0;entryX=0;entryY=0.5;entryDx=0;entryDy=0;" edge="1" parent="1" source="sOvNb4iYE4QgT3p0wdKc-2" target="sOvNb4iYE4QgT3p0wdKc-9">
          <mxGeometry relative="1" as="geometry" />
        </mxCell>
        <mxCell id="sOvNb4iYE4QgT3p0wdKc-2" value="User Finacial List" style="ellipse;whiteSpace=wrap;html=1;" vertex="1" parent="1">
          <mxGeometry x="310" y="680" width="120" height="40" as="geometry" />
        </mxCell>
        <mxCell id="sOvNb4iYE4QgT3p0wdKc-4" value="Create Finacial Data" style="rounded=0;whiteSpace=wrap;html=1;" vertex="1" parent="1">
          <mxGeometry x="310" y="760" width="120" height="40" as="geometry" />
        </mxCell>
        <mxCell id="sOvNb4iYE4QgT3p0wdKc-6" value="View Finacial Data" style="rounded=0;whiteSpace=wrap;html=1;" vertex="1" parent="1">
          <mxGeometry x="510" y="680" width="120" height="40" as="geometry" />
        </mxCell>
        <mxCell id="sOvNb4iYE4QgT3p0wdKc-13" style="edgeStyle=orthogonalEdgeStyle;rounded=0;orthogonalLoop=1;jettySize=auto;html=1;exitX=1;exitY=0.5;exitDx=0;exitDy=0;" edge="1" parent="1" source="sOvNb4iYE4QgT3p0wdKc-8" target="sOvNb4iYE4QgT3p0wdKc-12">
          <mxGeometry relative="1" as="geometry" />
        </mxCell>
        <mxCell id="sOvNb4iYE4QgT3p0wdKc-15" style="edgeStyle=orthogonalEdgeStyle;rounded=0;orthogonalLoop=1;jettySize=auto;html=1;exitX=0.5;exitY=1;exitDx=0;exitDy=0;entryX=0.5;entryY=0;entryDx=0;entryDy=0;" edge="1" parent="1" source="sOvNb4iYE4QgT3p0wdKc-8" target="sOvNb4iYE4QgT3p0wdKc-14">
          <mxGeometry relative="1" as="geometry" />
        </mxCell>
        <mxCell id="sOvNb4iYE4QgT3p0wdKc-17" style="edgeStyle=orthogonalEdgeStyle;rounded=0;orthogonalLoop=1;jettySize=auto;html=1;exitX=0;exitY=0;exitDx=0;exitDy=0;entryX=0.5;entryY=1;entryDx=0;entryDy=0;" edge="1" parent="1" source="sOvNb4iYE4QgT3p0wdKc-8" target="sOvNb4iYE4QgT3p0wdKc-16">
          <mxGeometry relative="1" as="geometry" />
        </mxCell>
        <mxCell id="sOvNb4iYE4QgT3p0wdKc-8" value="Payroll" style="ellipse;whiteSpace=wrap;html=1;" vertex="1" parent="1">
          <mxGeometry x="100" y="820" width="120" height="40" as="geometry" />
        </mxCell>
        <mxCell id="sOvNb4iYE4QgT3p0wdKc-9" value="Provident Fund" style="rounded=0;whiteSpace=wrap;html=1;" vertex="1" parent="1">
          <mxGeometry x="510" y="800" width="120" height="40" as="geometry" />
        </mxCell>
        <mxCell id="sOvNb4iYE4QgT3p0wdKc-12" value="Create Pay Slip" style="rounded=0;whiteSpace=wrap;html=1;" vertex="1" parent="1">
          <mxGeometry x="280" y="880" width="120" height="40" as="geometry" />
        </mxCell>
        <mxCell id="sOvNb4iYE4QgT3p0wdKc-14" value="View Pay Slip" style="rounded=0;whiteSpace=wrap;html=1;" vertex="1" parent="1">
          <mxGeometry x="100" y="920" width="120" height="40" as="geometry" />
        </mxCell>
        <mxCell id="sOvNb4iYE4QgT3p0wdKc-16" value="Import Slip" style="rounded=0;whiteSpace=wrap;html=1;" vertex="1" parent="1">
          <mxGeometry x="10" y="740" width="120" height="30" as="geometry" />
        </mxCell>
      </root>
    </mxGraphModel>
  </diagram>
  <diagram id="g9rpMPAct9lMq1L6zSxC" name="Retail">
    <mxGraphModel dx="1434" dy="836" grid="1" gridSize="10" guides="1" tooltips="1" connect="1" arrows="1" fold="1" page="1" pageScale="1" pageWidth="850" pageHeight="1100" math="0" shadow="0">
      <root>
        <mxCell id="0" />
        <mxCell id="1" parent="0" />
      </root>
    </mxGraphModel>
  </diagram>
  <diagram id="IwlYxG_29K0JIfpnqdFt" name="Seller">
    <mxGraphModel dx="1434" dy="836" grid="1" gridSize="10" guides="1" tooltips="1" connect="1" arrows="1" fold="1" page="1" pageScale="1" pageWidth="850" pageHeight="1100" math="0" shadow="0">
      <root>
        <mxCell id="0" />
        <mxCell id="1" parent="0" />
      </root>
    </mxGraphModel>
  </diagram>
</mxfile>
